<mxfile host="app.diagrams.net" modified="2023-12-01T07:09:05.512Z" agent="Mozilla/5.0 (Windows NT 10.0; Win64; x64) AppleWebKit/537.36 (KHTML, like Gecko) Chrome/119.0.0.0 Safari/537.36" etag="8LDWLWIBC_EWnkVhCqMi" version="22.1.5" type="device">
  <diagram id="dXpQpMqQ9ZExQ9C1fG0D" name="BT4">
    <mxGraphModel dx="4188" dy="434" grid="1" gridSize="10" guides="1" tooltips="1" connect="1" arrows="1" fold="1" page="1" pageScale="1" pageWidth="827" pageHeight="1169" math="0" shadow="0">
      <root>
        <mxCell id="0" />
        <mxCell id="1" parent="0" />
        <mxCell id="Ibqq23cAUE4MZ3tAlWik-1" style="edgeStyle=orthogonalEdgeStyle;rounded=0;orthogonalLoop=1;jettySize=auto;html=1;exitX=0.5;exitY=1;exitDx=0;exitDy=0;" parent="1" source="Ibqq23cAUE4MZ3tAlWik-2" target="Ibqq23cAUE4MZ3tAlWik-32" edge="1">
          <mxGeometry relative="1" as="geometry" />
        </mxCell>
        <mxCell id="Ibqq23cAUE4MZ3tAlWik-2" value="start" style="ellipse;whiteSpace=wrap;html=1;" parent="1" vertex="1">
          <mxGeometry x="354" y="30" width="120" height="80" as="geometry" />
        </mxCell>
        <mxCell id="Ibqq23cAUE4MZ3tAlWik-3" style="edgeStyle=orthogonalEdgeStyle;rounded=0;orthogonalLoop=1;jettySize=auto;html=1;exitX=0.5;exitY=1;exitDx=0;exitDy=0;entryX=0.5;entryY=0;entryDx=0;entryDy=0;" parent="1" source="Ibqq23cAUE4MZ3tAlWik-4" target="Ibqq23cAUE4MZ3tAlWik-6" edge="1">
          <mxGeometry relative="1" as="geometry" />
        </mxCell>
        <mxCell id="Ibqq23cAUE4MZ3tAlWik-4" value="reverseArr(int arr[], int lenghth)" style="rounded=0;whiteSpace=wrap;html=1;" parent="1" vertex="1">
          <mxGeometry x="810" y="40" width="120" height="60" as="geometry" />
        </mxCell>
        <mxCell id="Ibqq23cAUE4MZ3tAlWik-5" style="edgeStyle=orthogonalEdgeStyle;rounded=0;orthogonalLoop=1;jettySize=auto;html=1;exitX=0.5;exitY=1;exitDx=0;exitDy=0;entryX=0.5;entryY=0;entryDx=0;entryDy=0;" parent="1" source="Ibqq23cAUE4MZ3tAlWik-6" target="Ibqq23cAUE4MZ3tAlWik-8" edge="1">
          <mxGeometry relative="1" as="geometry" />
        </mxCell>
        <mxCell id="Ibqq23cAUE4MZ3tAlWik-6" value="size , swap&lt;br&gt;i=0" style="rounded=0;whiteSpace=wrap;html=1;" parent="1" vertex="1">
          <mxGeometry x="810" y="140" width="120" height="60" as="geometry" />
        </mxCell>
        <mxCell id="Ibqq23cAUE4MZ3tAlWik-7" style="edgeStyle=orthogonalEdgeStyle;rounded=0;orthogonalLoop=1;jettySize=auto;html=1;exitX=0.5;exitY=1;exitDx=0;exitDy=0;entryX=0.5;entryY=0;entryDx=0;entryDy=0;" parent="1" source="Ibqq23cAUE4MZ3tAlWik-8" target="Ibqq23cAUE4MZ3tAlWik-10" edge="1">
          <mxGeometry relative="1" as="geometry" />
        </mxCell>
        <mxCell id="Ibqq23cAUE4MZ3tAlWik-8" value="i&amp;lt;lenghth/2?" style="rhombus;whiteSpace=wrap;html=1;" parent="1" vertex="1">
          <mxGeometry x="830" y="240" width="80" height="80" as="geometry" />
        </mxCell>
        <mxCell id="Ibqq23cAUE4MZ3tAlWik-9" style="edgeStyle=orthogonalEdgeStyle;rounded=0;orthogonalLoop=1;jettySize=auto;html=1;exitX=0.5;exitY=1;exitDx=0;exitDy=0;" parent="1" source="Ibqq23cAUE4MZ3tAlWik-10" target="Ibqq23cAUE4MZ3tAlWik-12" edge="1">
          <mxGeometry relative="1" as="geometry" />
        </mxCell>
        <mxCell id="Ibqq23cAUE4MZ3tAlWik-10" value="size = lenghth - i - 1&lt;br&gt;swap = arr[i]&lt;br&gt;arr[i] = arr[size]&lt;br&gt;arr[size] = swap" style="rounded=0;whiteSpace=wrap;html=1;" parent="1" vertex="1">
          <mxGeometry x="810" y="360" width="120" height="60" as="geometry" />
        </mxCell>
        <mxCell id="Ibqq23cAUE4MZ3tAlWik-11" style="edgeStyle=orthogonalEdgeStyle;rounded=0;orthogonalLoop=1;jettySize=auto;html=1;exitX=0;exitY=0.5;exitDx=0;exitDy=0;entryX=0;entryY=0.5;entryDx=0;entryDy=0;" parent="1" source="Ibqq23cAUE4MZ3tAlWik-12" target="Ibqq23cAUE4MZ3tAlWik-8" edge="1">
          <mxGeometry relative="1" as="geometry" />
        </mxCell>
        <mxCell id="Ibqq23cAUE4MZ3tAlWik-12" value="i++" style="rounded=0;whiteSpace=wrap;html=1;" parent="1" vertex="1">
          <mxGeometry x="810" y="460" width="120" height="60" as="geometry" />
        </mxCell>
        <mxCell id="Ibqq23cAUE4MZ3tAlWik-13" style="edgeStyle=orthogonalEdgeStyle;rounded=0;orthogonalLoop=1;jettySize=auto;html=1;exitX=0.5;exitY=1;exitDx=0;exitDy=0;" parent="1" source="Ibqq23cAUE4MZ3tAlWik-14" edge="1">
          <mxGeometry relative="1" as="geometry">
            <mxPoint x="1190" y="140" as="targetPoint" />
          </mxGeometry>
        </mxCell>
        <mxCell id="Ibqq23cAUE4MZ3tAlWik-14" value="searchValue&amp;nbsp; (int arr[], int lenghth,int findValue)" style="rounded=0;whiteSpace=wrap;html=1;" parent="1" vertex="1">
          <mxGeometry x="1130" y="40" width="120" height="60" as="geometry" />
        </mxCell>
        <mxCell id="Ibqq23cAUE4MZ3tAlWik-15" style="edgeStyle=orthogonalEdgeStyle;rounded=0;orthogonalLoop=1;jettySize=auto;html=1;exitX=0.5;exitY=1;exitDx=0;exitDy=0;entryX=0.5;entryY=0;entryDx=0;entryDy=0;" parent="1" source="Ibqq23cAUE4MZ3tAlWik-16" target="Ibqq23cAUE4MZ3tAlWik-19" edge="1">
          <mxGeometry relative="1" as="geometry" />
        </mxCell>
        <mxCell id="Ibqq23cAUE4MZ3tAlWik-16" value="i = 0" style="rounded=0;whiteSpace=wrap;html=1;" parent="1" vertex="1">
          <mxGeometry x="1140" y="140" width="120" height="60" as="geometry" />
        </mxCell>
        <mxCell id="Ibqq23cAUE4MZ3tAlWik-17" style="edgeStyle=orthogonalEdgeStyle;rounded=0;orthogonalLoop=1;jettySize=auto;html=1;exitX=0.5;exitY=1;exitDx=0;exitDy=0;entryX=0.5;entryY=0;entryDx=0;entryDy=0;" parent="1" source="Ibqq23cAUE4MZ3tAlWik-19" target="Ibqq23cAUE4MZ3tAlWik-22" edge="1">
          <mxGeometry relative="1" as="geometry" />
        </mxCell>
        <mxCell id="Ibqq23cAUE4MZ3tAlWik-18" style="edgeStyle=orthogonalEdgeStyle;rounded=0;orthogonalLoop=1;jettySize=auto;html=1;exitX=1;exitY=0.5;exitDx=0;exitDy=0;" parent="1" source="Ibqq23cAUE4MZ3tAlWik-19" edge="1">
          <mxGeometry relative="1" as="geometry">
            <mxPoint x="1370" y="280" as="targetPoint" />
          </mxGeometry>
        </mxCell>
        <mxCell id="Ibqq23cAUE4MZ3tAlWik-19" value="i&amp;lt;lenghth?" style="rhombus;whiteSpace=wrap;html=1;" parent="1" vertex="1">
          <mxGeometry x="1160" y="240" width="80" height="80" as="geometry" />
        </mxCell>
        <mxCell id="Ibqq23cAUE4MZ3tAlWik-20" style="edgeStyle=orthogonalEdgeStyle;rounded=0;orthogonalLoop=1;jettySize=auto;html=1;exitX=0.5;exitY=1;exitDx=0;exitDy=0;" parent="1" source="Ibqq23cAUE4MZ3tAlWik-22" edge="1">
          <mxGeometry relative="1" as="geometry">
            <mxPoint x="1201" y="460" as="targetPoint" />
          </mxGeometry>
        </mxCell>
        <mxCell id="Ibqq23cAUE4MZ3tAlWik-21" style="edgeStyle=orthogonalEdgeStyle;rounded=0;orthogonalLoop=1;jettySize=auto;html=1;exitX=0;exitY=0.5;exitDx=0;exitDy=0;" parent="1" source="Ibqq23cAUE4MZ3tAlWik-22" edge="1">
          <mxGeometry relative="1" as="geometry">
            <mxPoint x="1110" y="390" as="targetPoint" />
          </mxGeometry>
        </mxCell>
        <mxCell id="Ibqq23cAUE4MZ3tAlWik-22" value="arr[i] == findValue?" style="rhombus;whiteSpace=wrap;html=1;" parent="1" vertex="1">
          <mxGeometry x="1161" y="350" width="80" height="80" as="geometry" />
        </mxCell>
        <mxCell id="Ibqq23cAUE4MZ3tAlWik-23" style="edgeStyle=orthogonalEdgeStyle;rounded=0;orthogonalLoop=1;jettySize=auto;html=1;exitX=1;exitY=0.5;exitDx=0;exitDy=0;" parent="1" source="Ibqq23cAUE4MZ3tAlWik-24" edge="1">
          <mxGeometry relative="1" as="geometry">
            <mxPoint x="1320" y="280" as="targetPoint" />
          </mxGeometry>
        </mxCell>
        <mxCell id="Ibqq23cAUE4MZ3tAlWik-24" value="return i" style="rounded=0;whiteSpace=wrap;html=1;" parent="1" vertex="1">
          <mxGeometry x="1150" y="460" width="120" height="60" as="geometry" />
        </mxCell>
        <mxCell id="Ibqq23cAUE4MZ3tAlWik-25" value="false" style="text;html=1;align=center;verticalAlign=middle;resizable=0;points=[];autosize=1;strokeColor=none;fillColor=none;" parent="1" vertex="1">
          <mxGeometry x="1120" y="358" width="50" height="30" as="geometry" />
        </mxCell>
        <mxCell id="Ibqq23cAUE4MZ3tAlWik-26" style="edgeStyle=orthogonalEdgeStyle;rounded=0;orthogonalLoop=1;jettySize=auto;html=1;exitX=0.5;exitY=0;exitDx=0;exitDy=0;entryX=0;entryY=0.5;entryDx=0;entryDy=0;" parent="1" source="Ibqq23cAUE4MZ3tAlWik-27" target="Ibqq23cAUE4MZ3tAlWik-19" edge="1">
          <mxGeometry relative="1" as="geometry" />
        </mxCell>
        <mxCell id="Ibqq23cAUE4MZ3tAlWik-27" value="i++" style="rounded=0;whiteSpace=wrap;html=1;" parent="1" vertex="1">
          <mxGeometry x="990" y="358" width="120" height="60" as="geometry" />
        </mxCell>
        <mxCell id="Ibqq23cAUE4MZ3tAlWik-28" value="false" style="text;html=1;align=center;verticalAlign=middle;resizable=0;points=[];autosize=1;strokeColor=none;fillColor=none;" parent="1" vertex="1">
          <mxGeometry x="1255" y="248" width="50" height="30" as="geometry" />
        </mxCell>
        <mxCell id="Ibqq23cAUE4MZ3tAlWik-29" value="true" style="text;html=1;align=center;verticalAlign=middle;resizable=0;points=[];autosize=1;strokeColor=none;fillColor=none;" parent="1" vertex="1">
          <mxGeometry x="1190" y="318" width="40" height="30" as="geometry" />
        </mxCell>
        <mxCell id="Ibqq23cAUE4MZ3tAlWik-30" value="true" style="text;html=1;align=center;verticalAlign=middle;resizable=0;points=[];autosize=1;strokeColor=none;fillColor=none;" parent="1" vertex="1">
          <mxGeometry x="1200" y="428" width="40" height="30" as="geometry" />
        </mxCell>
        <mxCell id="Ibqq23cAUE4MZ3tAlWik-31" style="edgeStyle=orthogonalEdgeStyle;rounded=0;orthogonalLoop=1;jettySize=auto;html=1;exitX=0.5;exitY=1;exitDx=0;exitDy=0;entryX=0.5;entryY=0;entryDx=0;entryDy=0;" parent="1" source="Ibqq23cAUE4MZ3tAlWik-32" target="Ibqq23cAUE4MZ3tAlWik-34" edge="1">
          <mxGeometry relative="1" as="geometry" />
        </mxCell>
        <mxCell id="Ibqq23cAUE4MZ3tAlWik-32" value="findValue, swap,&lt;br&gt;arr[100]&lt;br&gt;currentIndex = 0&lt;br&gt;currentIndex1 = 0&lt;br&gt;arr1[100]&lt;br&gt;arr2[100]&lt;br&gt;n" style="rounded=0;whiteSpace=wrap;html=1;" parent="1" vertex="1">
          <mxGeometry x="354" y="150" width="120" height="100" as="geometry" />
        </mxCell>
        <mxCell id="Ibqq23cAUE4MZ3tAlWik-33" style="edgeStyle=orthogonalEdgeStyle;rounded=0;orthogonalLoop=1;jettySize=auto;html=1;exitX=0.5;exitY=1;exitDx=0;exitDy=0;entryX=0.5;entryY=0;entryDx=0;entryDy=0;" parent="1" source="Ibqq23cAUE4MZ3tAlWik-34" target="Ibqq23cAUE4MZ3tAlWik-36" edge="1">
          <mxGeometry relative="1" as="geometry" />
        </mxCell>
        <mxCell id="Ibqq23cAUE4MZ3tAlWik-34" value="do" style="rounded=0;whiteSpace=wrap;html=1;" parent="1" vertex="1">
          <mxGeometry x="354" y="288" width="120" height="60" as="geometry" />
        </mxCell>
        <mxCell id="Ibqq23cAUE4MZ3tAlWik-35" style="edgeStyle=orthogonalEdgeStyle;rounded=0;orthogonalLoop=1;jettySize=auto;html=1;exitX=0.5;exitY=1;exitDx=0;exitDy=0;entryX=0.5;entryY=0;entryDx=0;entryDy=0;" parent="1" source="Ibqq23cAUE4MZ3tAlWik-36" edge="1">
          <mxGeometry relative="1" as="geometry">
            <mxPoint x="414" y="500" as="targetPoint" />
          </mxGeometry>
        </mxCell>
        <mxCell id="Ibqq23cAUE4MZ3tAlWik-36" value="menu" style="shape=parallelogram;perimeter=parallelogramPerimeter;whiteSpace=wrap;html=1;fixedSize=1;" parent="1" vertex="1">
          <mxGeometry x="354" y="398" width="120" height="60" as="geometry" />
        </mxCell>
        <mxCell id="Ibqq23cAUE4MZ3tAlWik-37" style="edgeStyle=orthogonalEdgeStyle;rounded=0;orthogonalLoop=1;jettySize=auto;html=1;exitX=0;exitY=0.5;exitDx=0;exitDy=0;" parent="1" source="Ibqq23cAUE4MZ3tAlWik-38" target="Ibqq23cAUE4MZ3tAlWik-41" edge="1">
          <mxGeometry relative="1" as="geometry" />
        </mxCell>
        <mxCell id="Ibqq23cAUE4MZ3tAlWik-38" value="choice" style="shape=parallelogram;perimeter=parallelogramPerimeter;whiteSpace=wrap;html=1;fixedSize=1;" parent="1" vertex="1">
          <mxGeometry x="354" y="500" width="120" height="60" as="geometry" />
        </mxCell>
        <mxCell id="Ibqq23cAUE4MZ3tAlWik-39" value="true" style="edgeStyle=orthogonalEdgeStyle;rounded=0;orthogonalLoop=1;jettySize=auto;html=1;exitX=0.5;exitY=1;exitDx=0;exitDy=0;entryX=0.5;entryY=0;entryDx=0;entryDy=0;" parent="1" source="Ibqq23cAUE4MZ3tAlWik-41" target="Ibqq23cAUE4MZ3tAlWik-43" edge="1">
          <mxGeometry relative="1" as="geometry" />
        </mxCell>
        <mxCell id="Ibqq23cAUE4MZ3tAlWik-40" value="false" style="edgeStyle=orthogonalEdgeStyle;rounded=0;orthogonalLoop=1;jettySize=auto;html=1;exitX=0;exitY=0.5;exitDx=0;exitDy=0;" parent="1" source="Ibqq23cAUE4MZ3tAlWik-41" edge="1">
          <mxGeometry relative="1" as="geometry">
            <mxPoint x="-100" y="530" as="targetPoint" />
          </mxGeometry>
        </mxCell>
        <mxCell id="Ibqq23cAUE4MZ3tAlWik-41" value="choice == 1?" style="rhombus;whiteSpace=wrap;html=1;" parent="1" vertex="1">
          <mxGeometry x="170" y="490" width="80" height="80" as="geometry" />
        </mxCell>
        <mxCell id="Ibqq23cAUE4MZ3tAlWik-42" style="edgeStyle=orthogonalEdgeStyle;rounded=0;orthogonalLoop=1;jettySize=auto;html=1;exitX=0.5;exitY=1;exitDx=0;exitDy=0;entryX=0.5;entryY=0;entryDx=0;entryDy=0;" parent="1" source="Ibqq23cAUE4MZ3tAlWik-43" target="Ibqq23cAUE4MZ3tAlWik-45" edge="1">
          <mxGeometry relative="1" as="geometry" />
        </mxCell>
        <mxCell id="Ibqq23cAUE4MZ3tAlWik-43" value="n" style="shape=parallelogram;perimeter=parallelogramPerimeter;whiteSpace=wrap;html=1;fixedSize=1;" parent="1" vertex="1">
          <mxGeometry x="150" y="600" width="120" height="60" as="geometry" />
        </mxCell>
        <mxCell id="Ibqq23cAUE4MZ3tAlWik-44" style="edgeStyle=orthogonalEdgeStyle;rounded=0;orthogonalLoop=1;jettySize=auto;html=1;exitX=0.5;exitY=1;exitDx=0;exitDy=0;entryX=0.5;entryY=0;entryDx=0;entryDy=0;" parent="1" source="Ibqq23cAUE4MZ3tAlWik-45" target="Ibqq23cAUE4MZ3tAlWik-47" edge="1">
          <mxGeometry relative="1" as="geometry" />
        </mxCell>
        <mxCell id="Ibqq23cAUE4MZ3tAlWik-45" value="i = 0" style="rounded=0;whiteSpace=wrap;html=1;" parent="1" vertex="1">
          <mxGeometry x="150" y="690" width="120" height="60" as="geometry" />
        </mxCell>
        <mxCell id="Ibqq23cAUE4MZ3tAlWik-46" style="edgeStyle=orthogonalEdgeStyle;rounded=0;orthogonalLoop=1;jettySize=auto;html=1;exitX=1;exitY=0.5;exitDx=0;exitDy=0;entryX=1;entryY=0.25;entryDx=0;entryDy=0;" parent="1" source="Ibqq23cAUE4MZ3tAlWik-47" target="Ibqq23cAUE4MZ3tAlWik-34" edge="1">
          <mxGeometry relative="1" as="geometry">
            <mxPoint x="520" y="310" as="targetPoint" />
            <Array as="points">
              <mxPoint x="330" y="820" />
              <mxPoint x="330" y="1160" />
              <mxPoint x="520" y="1160" />
              <mxPoint x="520" y="303" />
            </Array>
          </mxGeometry>
        </mxCell>
        <mxCell id="Ibqq23cAUE4MZ3tAlWik-47" value="i&amp;lt;n?" style="rhombus;whiteSpace=wrap;html=1;" parent="1" vertex="1">
          <mxGeometry x="170" y="780" width="80" height="80" as="geometry" />
        </mxCell>
        <mxCell id="Ibqq23cAUE4MZ3tAlWik-48" value="nhap gia tri phan tu" style="shape=parallelogram;perimeter=parallelogramPerimeter;whiteSpace=wrap;html=1;fixedSize=1;" parent="1" vertex="1">
          <mxGeometry x="140" y="900" width="120" height="60" as="geometry" />
        </mxCell>
        <mxCell id="Ibqq23cAUE4MZ3tAlWik-49" value="true" style="edgeStyle=orthogonalEdgeStyle;rounded=0;orthogonalLoop=1;jettySize=auto;html=1;exitX=0.5;exitY=1;exitDx=0;exitDy=0;entryX=0.587;entryY=-0.03;entryDx=0;entryDy=0;entryPerimeter=0;" parent="1" source="Ibqq23cAUE4MZ3tAlWik-47" target="Ibqq23cAUE4MZ3tAlWik-48" edge="1">
          <mxGeometry relative="1" as="geometry" />
        </mxCell>
        <mxCell id="Ibqq23cAUE4MZ3tAlWik-50" style="edgeStyle=orthogonalEdgeStyle;rounded=0;orthogonalLoop=1;jettySize=auto;html=1;exitX=0;exitY=0.5;exitDx=0;exitDy=0;entryX=0;entryY=0.5;entryDx=0;entryDy=0;" parent="1" source="Ibqq23cAUE4MZ3tAlWik-51" target="Ibqq23cAUE4MZ3tAlWik-47" edge="1">
          <mxGeometry relative="1" as="geometry" />
        </mxCell>
        <mxCell id="Ibqq23cAUE4MZ3tAlWik-51" value="i++&lt;br&gt;currentIndex++" style="rounded=0;whiteSpace=wrap;html=1;" parent="1" vertex="1">
          <mxGeometry x="150" y="1000" width="120" height="60" as="geometry" />
        </mxCell>
        <mxCell id="Ibqq23cAUE4MZ3tAlWik-52" style="edgeStyle=orthogonalEdgeStyle;rounded=0;orthogonalLoop=1;jettySize=auto;html=1;exitX=0.5;exitY=1;exitDx=0;exitDy=0;entryX=0.417;entryY=0;entryDx=0;entryDy=0;entryPerimeter=0;" parent="1" source="Ibqq23cAUE4MZ3tAlWik-48" target="Ibqq23cAUE4MZ3tAlWik-51" edge="1">
          <mxGeometry relative="1" as="geometry" />
        </mxCell>
        <mxCell id="Ibqq23cAUE4MZ3tAlWik-53" value="false" style="text;html=1;align=center;verticalAlign=middle;resizable=0;points=[];autosize=1;strokeColor=none;fillColor=none;" parent="1" vertex="1">
          <mxGeometry x="255" y="788" width="50" height="30" as="geometry" />
        </mxCell>
        <mxCell id="Ibqq23cAUE4MZ3tAlWik-54" style="edgeStyle=orthogonalEdgeStyle;rounded=0;orthogonalLoop=1;jettySize=auto;html=1;exitX=0.5;exitY=1;exitDx=0;exitDy=0;entryX=0.5;entryY=0;entryDx=0;entryDy=0;" parent="1" source="Ibqq23cAUE4MZ3tAlWik-56" target="Ibqq23cAUE4MZ3tAlWik-58" edge="1">
          <mxGeometry relative="1" as="geometry" />
        </mxCell>
        <mxCell id="Ibqq23cAUE4MZ3tAlWik-55" style="edgeStyle=orthogonalEdgeStyle;rounded=0;orthogonalLoop=1;jettySize=auto;html=1;exitX=0;exitY=0.5;exitDx=0;exitDy=0;" parent="1" source="Ibqq23cAUE4MZ3tAlWik-56" edge="1">
          <mxGeometry relative="1" as="geometry">
            <mxPoint x="-410" y="530" as="targetPoint" />
          </mxGeometry>
        </mxCell>
        <mxCell id="Ibqq23cAUE4MZ3tAlWik-56" value="choice == 2?" style="rhombus;whiteSpace=wrap;html=1;" parent="1" vertex="1">
          <mxGeometry x="-180" y="490" width="80" height="80" as="geometry" />
        </mxCell>
        <mxCell id="Ibqq23cAUE4MZ3tAlWik-57" style="edgeStyle=orthogonalEdgeStyle;rounded=0;orthogonalLoop=1;jettySize=auto;html=1;exitX=0.5;exitY=1;exitDx=0;exitDy=0;entryX=0.5;entryY=0;entryDx=0;entryDy=0;" parent="1" source="Ibqq23cAUE4MZ3tAlWik-58" target="Ibqq23cAUE4MZ3tAlWik-61" edge="1">
          <mxGeometry relative="1" as="geometry" />
        </mxCell>
        <mxCell id="Ibqq23cAUE4MZ3tAlWik-58" value="i = 0" style="rounded=0;whiteSpace=wrap;html=1;" parent="1" vertex="1">
          <mxGeometry x="-200" y="585" width="120" height="60" as="geometry" />
        </mxCell>
        <mxCell id="Ibqq23cAUE4MZ3tAlWik-59" value="true" style="edgeStyle=orthogonalEdgeStyle;rounded=0;orthogonalLoop=1;jettySize=auto;html=1;exitX=0.5;exitY=1;exitDx=0;exitDy=0;" parent="1" source="Ibqq23cAUE4MZ3tAlWik-61" edge="1">
          <mxGeometry relative="1" as="geometry">
            <mxPoint x="-140" y="800" as="targetPoint" />
          </mxGeometry>
        </mxCell>
        <mxCell id="Ibqq23cAUE4MZ3tAlWik-60" style="edgeStyle=orthogonalEdgeStyle;rounded=0;orthogonalLoop=1;jettySize=auto;html=1;exitX=1;exitY=0.5;exitDx=0;exitDy=0;" parent="1" source="Ibqq23cAUE4MZ3tAlWik-61" edge="1">
          <mxGeometry relative="1" as="geometry">
            <mxPoint x="330" y="1160" as="targetPoint" />
            <Array as="points">
              <mxPoint y="710" />
              <mxPoint y="1160" />
              <mxPoint x="330" y="1160" />
            </Array>
          </mxGeometry>
        </mxCell>
        <mxCell id="Ibqq23cAUE4MZ3tAlWik-61" value="i&amp;lt;currentIndex?" style="rhombus;whiteSpace=wrap;html=1;" parent="1" vertex="1">
          <mxGeometry x="-180" y="670" width="80" height="80" as="geometry" />
        </mxCell>
        <mxCell id="Ibqq23cAUE4MZ3tAlWik-62" style="edgeStyle=orthogonalEdgeStyle;rounded=0;orthogonalLoop=1;jettySize=auto;html=1;exitX=0.5;exitY=1;exitDx=0;exitDy=0;" parent="1" source="Ibqq23cAUE4MZ3tAlWik-63" edge="1">
          <mxGeometry relative="1" as="geometry">
            <mxPoint x="-150" y="910" as="targetPoint" />
          </mxGeometry>
        </mxCell>
        <mxCell id="Ibqq23cAUE4MZ3tAlWik-63" value="in ra gia tri phan tu" style="shape=parallelogram;perimeter=parallelogramPerimeter;whiteSpace=wrap;html=1;fixedSize=1;" parent="1" vertex="1">
          <mxGeometry x="-210" y="800" width="120" height="60" as="geometry" />
        </mxCell>
        <mxCell id="Ibqq23cAUE4MZ3tAlWik-64" style="edgeStyle=orthogonalEdgeStyle;rounded=0;orthogonalLoop=1;jettySize=auto;html=1;exitX=0;exitY=0.5;exitDx=0;exitDy=0;entryX=0;entryY=0.5;entryDx=0;entryDy=0;" parent="1" source="Ibqq23cAUE4MZ3tAlWik-65" target="Ibqq23cAUE4MZ3tAlWik-61" edge="1">
          <mxGeometry relative="1" as="geometry" />
        </mxCell>
        <mxCell id="Ibqq23cAUE4MZ3tAlWik-65" value="i++" style="rounded=0;whiteSpace=wrap;html=1;" parent="1" vertex="1">
          <mxGeometry x="-210" y="910" width="120" height="60" as="geometry" />
        </mxCell>
        <mxCell id="Ibqq23cAUE4MZ3tAlWik-66" value="fasle" style="text;html=1;align=center;verticalAlign=middle;resizable=0;points=[];autosize=1;strokeColor=none;fillColor=none;" parent="1" vertex="1">
          <mxGeometry x="-105" y="688" width="50" height="30" as="geometry" />
        </mxCell>
        <mxCell id="Ibqq23cAUE4MZ3tAlWik-67" value="true" style="text;html=1;align=center;verticalAlign=middle;resizable=0;points=[];autosize=1;strokeColor=none;fillColor=none;" parent="1" vertex="1">
          <mxGeometry x="-130" y="548" width="40" height="30" as="geometry" />
        </mxCell>
        <mxCell id="Ibqq23cAUE4MZ3tAlWik-68" style="edgeStyle=orthogonalEdgeStyle;rounded=0;orthogonalLoop=1;jettySize=auto;html=1;exitX=0.5;exitY=1;exitDx=0;exitDy=0;entryX=0.5;entryY=0;entryDx=0;entryDy=0;" parent="1" source="Ibqq23cAUE4MZ3tAlWik-70" target="Ibqq23cAUE4MZ3tAlWik-75" edge="1">
          <mxGeometry relative="1" as="geometry" />
        </mxCell>
        <mxCell id="Ibqq23cAUE4MZ3tAlWik-69" style="edgeStyle=orthogonalEdgeStyle;rounded=0;orthogonalLoop=1;jettySize=auto;html=1;exitX=0;exitY=0.5;exitDx=0;exitDy=0;" parent="1" source="Ibqq23cAUE4MZ3tAlWik-70" edge="1">
          <mxGeometry relative="1" as="geometry">
            <mxPoint x="-720" y="530" as="targetPoint" />
          </mxGeometry>
        </mxCell>
        <mxCell id="Ibqq23cAUE4MZ3tAlWik-70" value="choice == 3?" style="rhombus;whiteSpace=wrap;html=1;" parent="1" vertex="1">
          <mxGeometry x="-493" y="490" width="80" height="80" as="geometry" />
        </mxCell>
        <mxCell id="Ibqq23cAUE4MZ3tAlWik-71" style="edgeStyle=orthogonalEdgeStyle;rounded=0;orthogonalLoop=1;jettySize=auto;html=1;exitX=0.5;exitY=1;exitDx=0;exitDy=0;" parent="1" source="Ibqq23cAUE4MZ3tAlWik-73" edge="1">
          <mxGeometry relative="1" as="geometry">
            <mxPoint x="-453" y="800" as="targetPoint" />
          </mxGeometry>
        </mxCell>
        <mxCell id="Ibqq23cAUE4MZ3tAlWik-72" style="edgeStyle=orthogonalEdgeStyle;rounded=0;orthogonalLoop=1;jettySize=auto;html=1;exitX=1;exitY=0.5;exitDx=0;exitDy=0;" parent="1" source="Ibqq23cAUE4MZ3tAlWik-73" edge="1">
          <mxGeometry relative="1" as="geometry">
            <mxPoint x="-360" y="1010" as="targetPoint" />
          </mxGeometry>
        </mxCell>
        <mxCell id="Ibqq23cAUE4MZ3tAlWik-73" value="i&amp;lt;currentIndex?" style="rhombus;whiteSpace=wrap;html=1;" parent="1" vertex="1">
          <mxGeometry x="-493" y="680" width="80" height="80" as="geometry" />
        </mxCell>
        <mxCell id="Ibqq23cAUE4MZ3tAlWik-74" style="edgeStyle=orthogonalEdgeStyle;rounded=0;orthogonalLoop=1;jettySize=auto;html=1;exitX=0.5;exitY=1;exitDx=0;exitDy=0;entryX=0.5;entryY=0;entryDx=0;entryDy=0;" parent="1" source="Ibqq23cAUE4MZ3tAlWik-75" target="Ibqq23cAUE4MZ3tAlWik-73" edge="1">
          <mxGeometry relative="1" as="geometry" />
        </mxCell>
        <mxCell id="Ibqq23cAUE4MZ3tAlWik-75" value="i=0" style="rounded=0;whiteSpace=wrap;html=1;" parent="1" vertex="1">
          <mxGeometry x="-513" y="590" width="120" height="60" as="geometry" />
        </mxCell>
        <mxCell id="Ibqq23cAUE4MZ3tAlWik-76" style="edgeStyle=orthogonalEdgeStyle;rounded=0;orthogonalLoop=1;jettySize=auto;html=1;exitX=0.5;exitY=1;exitDx=0;exitDy=0;" parent="1" source="Ibqq23cAUE4MZ3tAlWik-77" edge="1">
          <mxGeometry relative="1" as="geometry">
            <mxPoint x="-453" y="910" as="targetPoint" />
          </mxGeometry>
        </mxCell>
        <mxCell id="Ibqq23cAUE4MZ3tAlWik-77" value="arr2[i] = arr[i]" style="rounded=0;whiteSpace=wrap;html=1;" parent="1" vertex="1">
          <mxGeometry x="-513" y="800" width="120" height="60" as="geometry" />
        </mxCell>
        <mxCell id="Ibqq23cAUE4MZ3tAlWik-78" style="edgeStyle=orthogonalEdgeStyle;rounded=0;orthogonalLoop=1;jettySize=auto;html=1;exitX=0;exitY=0.5;exitDx=0;exitDy=0;entryX=0;entryY=0.5;entryDx=0;entryDy=0;" parent="1" source="Ibqq23cAUE4MZ3tAlWik-79" target="Ibqq23cAUE4MZ3tAlWik-73" edge="1">
          <mxGeometry relative="1" as="geometry" />
        </mxCell>
        <mxCell id="Ibqq23cAUE4MZ3tAlWik-79" value="i++" style="rounded=0;whiteSpace=wrap;html=1;" parent="1" vertex="1">
          <mxGeometry x="-513" y="910" width="120" height="60" as="geometry" />
        </mxCell>
        <mxCell id="Ibqq23cAUE4MZ3tAlWik-80" style="edgeStyle=orthogonalEdgeStyle;rounded=0;orthogonalLoop=1;jettySize=auto;html=1;exitX=0.5;exitY=1;exitDx=0;exitDy=0;" parent="1" source="Ibqq23cAUE4MZ3tAlWik-81" edge="1">
          <mxGeometry relative="1" as="geometry">
            <mxPoint y="1160" as="targetPoint" />
            <Array as="points">
              <mxPoint x="-360" y="1160" />
            </Array>
          </mxGeometry>
        </mxCell>
        <mxCell id="Ibqq23cAUE4MZ3tAlWik-81" value="mang sa sao chep&lt;br&gt;arr2[]" style="shape=parallelogram;perimeter=parallelogramPerimeter;whiteSpace=wrap;html=1;fixedSize=1;" parent="1" vertex="1">
          <mxGeometry x="-420" y="1010" width="120" height="60" as="geometry" />
        </mxCell>
        <mxCell id="Ibqq23cAUE4MZ3tAlWik-82" style="edgeStyle=orthogonalEdgeStyle;rounded=0;orthogonalLoop=1;jettySize=auto;html=1;exitX=0.5;exitY=1;exitDx=0;exitDy=0;" parent="1" source="Ibqq23cAUE4MZ3tAlWik-84" target="Ibqq23cAUE4MZ3tAlWik-86" edge="1">
          <mxGeometry relative="1" as="geometry" />
        </mxCell>
        <mxCell id="Ibqq23cAUE4MZ3tAlWik-83" style="edgeStyle=orthogonalEdgeStyle;rounded=0;orthogonalLoop=1;jettySize=auto;html=1;exitX=0.5;exitY=0;exitDx=0;exitDy=0;entryX=1;entryY=0.5;entryDx=0;entryDy=0;" parent="1" source="Ibqq23cAUE4MZ3tAlWik-84" target="Ibqq23cAUE4MZ3tAlWik-147" edge="1">
          <mxGeometry relative="1" as="geometry" />
        </mxCell>
        <mxCell id="Ibqq23cAUE4MZ3tAlWik-84" value="choice == 4?" style="rhombus;whiteSpace=wrap;html=1;" parent="1" vertex="1">
          <mxGeometry x="-800" y="490" width="80" height="80" as="geometry" />
        </mxCell>
        <mxCell id="Ibqq23cAUE4MZ3tAlWik-85" style="edgeStyle=orthogonalEdgeStyle;rounded=0;orthogonalLoop=1;jettySize=auto;html=1;exitX=0.5;exitY=1;exitDx=0;exitDy=0;entryX=0.5;entryY=0;entryDx=0;entryDy=0;" parent="1" source="Ibqq23cAUE4MZ3tAlWik-86" edge="1">
          <mxGeometry relative="1" as="geometry">
            <mxPoint x="-760" y="708" as="targetPoint" />
          </mxGeometry>
        </mxCell>
        <mxCell id="Ibqq23cAUE4MZ3tAlWik-86" value="so phan tu muon them n" style="shape=parallelogram;perimeter=parallelogramPerimeter;whiteSpace=wrap;html=1;fixedSize=1;" parent="1" vertex="1">
          <mxGeometry x="-820" y="610" width="120" height="60" as="geometry" />
        </mxCell>
        <mxCell id="Ibqq23cAUE4MZ3tAlWik-87" style="edgeStyle=orthogonalEdgeStyle;rounded=0;orthogonalLoop=1;jettySize=auto;html=1;exitX=0.5;exitY=1;exitDx=0;exitDy=0;entryX=0.5;entryY=0;entryDx=0;entryDy=0;" parent="1" source="Ibqq23cAUE4MZ3tAlWik-88" target="Ibqq23cAUE4MZ3tAlWik-91" edge="1">
          <mxGeometry relative="1" as="geometry" />
        </mxCell>
        <mxCell id="Ibqq23cAUE4MZ3tAlWik-88" value="i=0" style="rounded=0;whiteSpace=wrap;html=1;" parent="1" vertex="1">
          <mxGeometry x="-820" y="710" width="120" height="60" as="geometry" />
        </mxCell>
        <mxCell id="Ibqq23cAUE4MZ3tAlWik-89" value="true" style="edgeStyle=orthogonalEdgeStyle;rounded=0;orthogonalLoop=1;jettySize=auto;html=1;exitX=0.5;exitY=1;exitDx=0;exitDy=0;entryX=0.5;entryY=0;entryDx=0;entryDy=0;" parent="1" source="Ibqq23cAUE4MZ3tAlWik-91" target="Ibqq23cAUE4MZ3tAlWik-93" edge="1">
          <mxGeometry relative="1" as="geometry" />
        </mxCell>
        <mxCell id="Ibqq23cAUE4MZ3tAlWik-90" style="edgeStyle=orthogonalEdgeStyle;rounded=0;orthogonalLoop=1;jettySize=auto;html=1;exitX=0;exitY=0.5;exitDx=0;exitDy=0;" parent="1" source="Ibqq23cAUE4MZ3tAlWik-91" edge="1">
          <mxGeometry relative="1" as="geometry">
            <mxPoint x="-940" y="840" as="targetPoint" />
          </mxGeometry>
        </mxCell>
        <mxCell id="Ibqq23cAUE4MZ3tAlWik-91" value="i&amp;lt;n?" style="rhombus;whiteSpace=wrap;html=1;" parent="1" vertex="1">
          <mxGeometry x="-800" y="800" width="80" height="80" as="geometry" />
        </mxCell>
        <mxCell id="Ibqq23cAUE4MZ3tAlWik-92" style="edgeStyle=orthogonalEdgeStyle;rounded=0;orthogonalLoop=1;jettySize=auto;html=1;exitX=0.5;exitY=1;exitDx=0;exitDy=0;entryX=0.5;entryY=0;entryDx=0;entryDy=0;" parent="1" source="Ibqq23cAUE4MZ3tAlWik-93" target="Ibqq23cAUE4MZ3tAlWik-95" edge="1">
          <mxGeometry relative="1" as="geometry" />
        </mxCell>
        <mxCell id="Ibqq23cAUE4MZ3tAlWik-93" value="nhap gia tri arr1" style="shape=parallelogram;perimeter=parallelogramPerimeter;whiteSpace=wrap;html=1;fixedSize=1;" parent="1" vertex="1">
          <mxGeometry x="-820" y="910" width="120" height="60" as="geometry" />
        </mxCell>
        <mxCell id="Ibqq23cAUE4MZ3tAlWik-94" style="edgeStyle=orthogonalEdgeStyle;rounded=0;orthogonalLoop=1;jettySize=auto;html=1;exitX=1;exitY=0.5;exitDx=0;exitDy=0;entryX=1;entryY=0.5;entryDx=0;entryDy=0;" parent="1" source="Ibqq23cAUE4MZ3tAlWik-95" target="Ibqq23cAUE4MZ3tAlWik-91" edge="1">
          <mxGeometry relative="1" as="geometry" />
        </mxCell>
        <mxCell id="Ibqq23cAUE4MZ3tAlWik-95" value="currentIndex1++&lt;br&gt;i++" style="rounded=0;whiteSpace=wrap;html=1;" parent="1" vertex="1">
          <mxGeometry x="-820" y="1010" width="120" height="60" as="geometry" />
        </mxCell>
        <mxCell id="Ibqq23cAUE4MZ3tAlWik-96" value="true" style="edgeStyle=orthogonalEdgeStyle;rounded=0;orthogonalLoop=1;jettySize=auto;html=1;exitX=0.5;exitY=1;exitDx=0;exitDy=0;" parent="1" source="Ibqq23cAUE4MZ3tAlWik-98" edge="1">
          <mxGeometry relative="1" as="geometry">
            <mxPoint x="-1055" y="930" as="targetPoint" />
          </mxGeometry>
        </mxCell>
        <mxCell id="Ibqq23cAUE4MZ3tAlWik-97" style="edgeStyle=orthogonalEdgeStyle;rounded=0;orthogonalLoop=1;jettySize=auto;html=1;exitX=0;exitY=0.5;exitDx=0;exitDy=0;" parent="1" source="Ibqq23cAUE4MZ3tAlWik-98" edge="1">
          <mxGeometry relative="1" as="geometry">
            <mxPoint x="-1820" y="840" as="targetPoint" />
          </mxGeometry>
        </mxCell>
        <mxCell id="Ibqq23cAUE4MZ3tAlWik-98" value="currentIndex&amp;gt;currentIndex1?" style="rhombus;whiteSpace=wrap;html=1;" parent="1" vertex="1">
          <mxGeometry x="-1170" y="800" width="230" height="80" as="geometry" />
        </mxCell>
        <mxCell id="Ibqq23cAUE4MZ3tAlWik-99" style="edgeStyle=orthogonalEdgeStyle;rounded=0;orthogonalLoop=1;jettySize=auto;html=1;exitX=0.5;exitY=1;exitDx=0;exitDy=0;entryX=0.5;entryY=0;entryDx=0;entryDy=0;" parent="1" source="Ibqq23cAUE4MZ3tAlWik-100" target="Ibqq23cAUE4MZ3tAlWik-103" edge="1">
          <mxGeometry relative="1" as="geometry" />
        </mxCell>
        <mxCell id="Ibqq23cAUE4MZ3tAlWik-100" value="i=0" style="rounded=0;whiteSpace=wrap;html=1;" parent="1" vertex="1">
          <mxGeometry x="-1120" y="930" width="120" height="60" as="geometry" />
        </mxCell>
        <mxCell id="Ibqq23cAUE4MZ3tAlWik-101" value="true" style="edgeStyle=orthogonalEdgeStyle;rounded=0;orthogonalLoop=1;jettySize=auto;html=1;exitX=0.5;exitY=1;exitDx=0;exitDy=0;entryX=0.5;entryY=0;entryDx=0;entryDy=0;" parent="1" source="Ibqq23cAUE4MZ3tAlWik-103" target="Ibqq23cAUE4MZ3tAlWik-106" edge="1">
          <mxGeometry relative="1" as="geometry" />
        </mxCell>
        <mxCell id="Ibqq23cAUE4MZ3tAlWik-102" value="false" style="edgeStyle=orthogonalEdgeStyle;rounded=0;orthogonalLoop=1;jettySize=auto;html=1;exitX=0;exitY=0.5;exitDx=0;exitDy=0;" parent="1" source="Ibqq23cAUE4MZ3tAlWik-103" edge="1">
          <mxGeometry relative="1" as="geometry">
            <mxPoint x="-1470" y="1070" as="targetPoint" />
          </mxGeometry>
        </mxCell>
        <mxCell id="Ibqq23cAUE4MZ3tAlWik-103" value="i&amp;lt;currentIndex?" style="rhombus;whiteSpace=wrap;html=1;" parent="1" vertex="1">
          <mxGeometry x="-1100" y="1030" width="80" height="80" as="geometry" />
        </mxCell>
        <mxCell id="Ibqq23cAUE4MZ3tAlWik-104" style="edgeStyle=orthogonalEdgeStyle;rounded=0;orthogonalLoop=1;jettySize=auto;html=1;exitX=0.5;exitY=1;exitDx=0;exitDy=0;" parent="1" source="Ibqq23cAUE4MZ3tAlWik-106" target="Ibqq23cAUE4MZ3tAlWik-108" edge="1">
          <mxGeometry relative="1" as="geometry" />
        </mxCell>
        <mxCell id="Ibqq23cAUE4MZ3tAlWik-105" value="false" style="edgeStyle=orthogonalEdgeStyle;rounded=0;orthogonalLoop=1;jettySize=auto;html=1;exitX=0;exitY=0.5;exitDx=0;exitDy=0;" parent="1" source="Ibqq23cAUE4MZ3tAlWik-106" edge="1">
          <mxGeometry relative="1" as="geometry">
            <mxPoint x="-1200" y="1190" as="targetPoint" />
          </mxGeometry>
        </mxCell>
        <mxCell id="Ibqq23cAUE4MZ3tAlWik-106" value="i&amp;lt;currentIndex1?" style="rhombus;whiteSpace=wrap;html=1;" parent="1" vertex="1">
          <mxGeometry x="-1100" y="1150" width="80" height="80" as="geometry" />
        </mxCell>
        <mxCell id="Ibqq23cAUE4MZ3tAlWik-107" style="edgeStyle=orthogonalEdgeStyle;rounded=0;orthogonalLoop=1;jettySize=auto;html=1;exitX=0.5;exitY=1;exitDx=0;exitDy=0;" parent="1" source="Ibqq23cAUE4MZ3tAlWik-108" edge="1">
          <mxGeometry relative="1" as="geometry">
            <mxPoint x="-1070" y="1350" as="targetPoint" />
          </mxGeometry>
        </mxCell>
        <mxCell id="Ibqq23cAUE4MZ3tAlWik-108" value="swap = arr[i]&lt;br&gt;arr[i] = arr1[i]&lt;br&gt;arr1[i] = swap" style="rounded=0;whiteSpace=wrap;html=1;" parent="1" vertex="1">
          <mxGeometry x="-1120" y="1270" width="120" height="60" as="geometry" />
        </mxCell>
        <mxCell id="Ibqq23cAUE4MZ3tAlWik-109" style="edgeStyle=orthogonalEdgeStyle;rounded=0;orthogonalLoop=1;jettySize=auto;html=1;exitX=0.5;exitY=1;exitDx=0;exitDy=0;entryX=0.5;entryY=0;entryDx=0;entryDy=0;" parent="1" source="Ibqq23cAUE4MZ3tAlWik-111" target="Ibqq23cAUE4MZ3tAlWik-113" edge="1">
          <mxGeometry relative="1" as="geometry" />
        </mxCell>
        <mxCell id="Ibqq23cAUE4MZ3tAlWik-110" value="false" style="edgeStyle=orthogonalEdgeStyle;rounded=0;orthogonalLoop=1;jettySize=auto;html=1;exitX=0;exitY=0.5;exitDx=0;exitDy=0;" parent="1" source="Ibqq23cAUE4MZ3tAlWik-111" edge="1">
          <mxGeometry relative="1" as="geometry">
            <mxPoint x="-1240" y="1350" as="targetPoint" />
            <Array as="points">
              <mxPoint x="-1390" y="1190" />
            </Array>
          </mxGeometry>
        </mxCell>
        <mxCell id="Ibqq23cAUE4MZ3tAlWik-111" value="i&amp;gt;currentIndex1?" style="rhombus;whiteSpace=wrap;html=1;" parent="1" vertex="1">
          <mxGeometry x="-1280" y="1150" width="80" height="80" as="geometry" />
        </mxCell>
        <mxCell id="Ibqq23cAUE4MZ3tAlWik-112" style="edgeStyle=orthogonalEdgeStyle;rounded=0;orthogonalLoop=1;jettySize=auto;html=1;exitX=0.5;exitY=1;exitDx=0;exitDy=0;entryX=0.5;entryY=1;entryDx=0;entryDy=0;" parent="1" source="Ibqq23cAUE4MZ3tAlWik-113" target="Ibqq23cAUE4MZ3tAlWik-115" edge="1">
          <mxGeometry relative="1" as="geometry">
            <mxPoint x="-1240" y="1380" as="targetPoint" />
          </mxGeometry>
        </mxCell>
        <mxCell id="Ibqq23cAUE4MZ3tAlWik-113" value="arr1[i] = arr[i]&lt;br&gt;arr[i] = &quot;\0&quot;" style="rounded=0;whiteSpace=wrap;html=1;" parent="1" vertex="1">
          <mxGeometry x="-1300" y="1270" width="120" height="60" as="geometry" />
        </mxCell>
        <mxCell id="Ibqq23cAUE4MZ3tAlWik-114" style="edgeStyle=orthogonalEdgeStyle;rounded=0;orthogonalLoop=1;jettySize=auto;html=1;exitX=0.5;exitY=0;exitDx=0;exitDy=0;entryX=1;entryY=0.5;entryDx=0;entryDy=0;" parent="1" source="Ibqq23cAUE4MZ3tAlWik-115" target="Ibqq23cAUE4MZ3tAlWik-103" edge="1">
          <mxGeometry relative="1" as="geometry" />
        </mxCell>
        <mxCell id="Ibqq23cAUE4MZ3tAlWik-115" value="i++" style="rounded=0;whiteSpace=wrap;html=1;" parent="1" vertex="1">
          <mxGeometry x="-930" y="1270" width="120" height="60" as="geometry" />
        </mxCell>
        <mxCell id="Ibqq23cAUE4MZ3tAlWik-116" style="edgeStyle=orthogonalEdgeStyle;rounded=0;orthogonalLoop=1;jettySize=auto;html=1;exitX=0.5;exitY=1;exitDx=0;exitDy=0;" parent="1" source="Ibqq23cAUE4MZ3tAlWik-117" edge="1">
          <mxGeometry relative="1" as="geometry">
            <mxPoint x="-2530" y="1480" as="targetPoint" />
            <Array as="points">
              <mxPoint x="-1570" y="1480" />
            </Array>
          </mxGeometry>
        </mxCell>
        <mxCell id="Ibqq23cAUE4MZ3tAlWik-117" value="swap = currentIndex&lt;br&gt;currentIndex = currentIndex1&lt;br&gt;currentIndex1 = swap" style="rounded=0;whiteSpace=wrap;html=1;" parent="1" vertex="1">
          <mxGeometry x="-1680" y="1040" width="210" height="60" as="geometry" />
        </mxCell>
        <mxCell id="Ibqq23cAUE4MZ3tAlWik-118" style="edgeStyle=orthogonalEdgeStyle;rounded=0;orthogonalLoop=1;jettySize=auto;html=1;exitX=0.5;exitY=1;exitDx=0;exitDy=0;" parent="1" source="Ibqq23cAUE4MZ3tAlWik-120" edge="1">
          <mxGeometry relative="1" as="geometry">
            <mxPoint x="-1935" y="950" as="targetPoint" />
          </mxGeometry>
        </mxCell>
        <mxCell id="Ibqq23cAUE4MZ3tAlWik-119" style="edgeStyle=orthogonalEdgeStyle;rounded=0;orthogonalLoop=1;jettySize=auto;html=1;exitX=0;exitY=0.5;exitDx=0;exitDy=0;" parent="1" source="Ibqq23cAUE4MZ3tAlWik-120" edge="1">
          <mxGeometry relative="1" as="geometry">
            <mxPoint x="-2580" y="1543.0000305175781" as="targetPoint" />
            <Array as="points">
              <mxPoint x="-2730" y="840" />
            </Array>
          </mxGeometry>
        </mxCell>
        <mxCell id="Ibqq23cAUE4MZ3tAlWik-120" value="currentIndex&amp;lt;currentIndex1?" style="rhombus;whiteSpace=wrap;html=1;" parent="1" vertex="1">
          <mxGeometry x="-2050" y="800" width="230" height="80" as="geometry" />
        </mxCell>
        <mxCell id="Ibqq23cAUE4MZ3tAlWik-121" style="edgeStyle=orthogonalEdgeStyle;rounded=0;orthogonalLoop=1;jettySize=auto;html=1;exitX=0.5;exitY=1;exitDx=0;exitDy=0;entryX=0.5;entryY=0;entryDx=0;entryDy=0;" parent="1" source="Ibqq23cAUE4MZ3tAlWik-122" target="Ibqq23cAUE4MZ3tAlWik-125" edge="1">
          <mxGeometry relative="1" as="geometry" />
        </mxCell>
        <mxCell id="Ibqq23cAUE4MZ3tAlWik-122" value="i=0" style="rounded=0;whiteSpace=wrap;html=1;" parent="1" vertex="1">
          <mxGeometry x="-2000" y="950" width="120" height="60" as="geometry" />
        </mxCell>
        <mxCell id="Ibqq23cAUE4MZ3tAlWik-123" value="true" style="edgeStyle=orthogonalEdgeStyle;rounded=0;orthogonalLoop=1;jettySize=auto;html=1;exitX=0.5;exitY=1;exitDx=0;exitDy=0;entryX=0.5;entryY=0;entryDx=0;entryDy=0;" parent="1" source="Ibqq23cAUE4MZ3tAlWik-125" target="Ibqq23cAUE4MZ3tAlWik-128" edge="1">
          <mxGeometry relative="1" as="geometry" />
        </mxCell>
        <mxCell id="Ibqq23cAUE4MZ3tAlWik-124" value="false" style="edgeStyle=orthogonalEdgeStyle;rounded=0;orthogonalLoop=1;jettySize=auto;html=1;exitX=0;exitY=0.5;exitDx=0;exitDy=0;" parent="1" source="Ibqq23cAUE4MZ3tAlWik-125" edge="1">
          <mxGeometry relative="1" as="geometry">
            <mxPoint x="-2350" y="1090" as="targetPoint" />
          </mxGeometry>
        </mxCell>
        <mxCell id="Ibqq23cAUE4MZ3tAlWik-125" value="i&amp;lt;currentIndex1?" style="rhombus;whiteSpace=wrap;html=1;" parent="1" vertex="1">
          <mxGeometry x="-1980" y="1050" width="80" height="80" as="geometry" />
        </mxCell>
        <mxCell id="Ibqq23cAUE4MZ3tAlWik-126" style="edgeStyle=orthogonalEdgeStyle;rounded=0;orthogonalLoop=1;jettySize=auto;html=1;exitX=0.5;exitY=1;exitDx=0;exitDy=0;" parent="1" source="Ibqq23cAUE4MZ3tAlWik-128" target="Ibqq23cAUE4MZ3tAlWik-130" edge="1">
          <mxGeometry relative="1" as="geometry" />
        </mxCell>
        <mxCell id="Ibqq23cAUE4MZ3tAlWik-127" value="false" style="edgeStyle=orthogonalEdgeStyle;rounded=0;orthogonalLoop=1;jettySize=auto;html=1;exitX=0;exitY=0.5;exitDx=0;exitDy=0;" parent="1" source="Ibqq23cAUE4MZ3tAlWik-128" edge="1">
          <mxGeometry relative="1" as="geometry">
            <mxPoint x="-2080" y="1210" as="targetPoint" />
          </mxGeometry>
        </mxCell>
        <mxCell id="Ibqq23cAUE4MZ3tAlWik-128" value="i&amp;lt;currentIndex?" style="rhombus;whiteSpace=wrap;html=1;" parent="1" vertex="1">
          <mxGeometry x="-1980" y="1170" width="80" height="80" as="geometry" />
        </mxCell>
        <mxCell id="Ibqq23cAUE4MZ3tAlWik-129" style="edgeStyle=orthogonalEdgeStyle;rounded=0;orthogonalLoop=1;jettySize=auto;html=1;exitX=0.5;exitY=1;exitDx=0;exitDy=0;" parent="1" source="Ibqq23cAUE4MZ3tAlWik-130" edge="1">
          <mxGeometry relative="1" as="geometry">
            <mxPoint x="-1950" y="1370" as="targetPoint" />
          </mxGeometry>
        </mxCell>
        <mxCell id="Ibqq23cAUE4MZ3tAlWik-130" value="swap = arr[i]&lt;br&gt;arr[i] = arr1[i]&lt;br&gt;arr1[i] = swap" style="rounded=0;whiteSpace=wrap;html=1;" parent="1" vertex="1">
          <mxGeometry x="-2000" y="1290" width="120" height="60" as="geometry" />
        </mxCell>
        <mxCell id="Ibqq23cAUE4MZ3tAlWik-131" style="edgeStyle=orthogonalEdgeStyle;rounded=0;orthogonalLoop=1;jettySize=auto;html=1;exitX=0.5;exitY=1;exitDx=0;exitDy=0;entryX=0.5;entryY=0;entryDx=0;entryDy=0;" parent="1" source="Ibqq23cAUE4MZ3tAlWik-133" target="Ibqq23cAUE4MZ3tAlWik-135" edge="1">
          <mxGeometry relative="1" as="geometry" />
        </mxCell>
        <mxCell id="Ibqq23cAUE4MZ3tAlWik-132" value="false" style="edgeStyle=orthogonalEdgeStyle;rounded=0;orthogonalLoop=1;jettySize=auto;html=1;exitX=0;exitY=0.5;exitDx=0;exitDy=0;" parent="1" source="Ibqq23cAUE4MZ3tAlWik-133" edge="1">
          <mxGeometry relative="1" as="geometry">
            <mxPoint x="-2120" y="1370" as="targetPoint" />
            <Array as="points">
              <mxPoint x="-2270" y="1210" />
            </Array>
          </mxGeometry>
        </mxCell>
        <mxCell id="Ibqq23cAUE4MZ3tAlWik-133" value="i&amp;gt;currentIndex?" style="rhombus;whiteSpace=wrap;html=1;" parent="1" vertex="1">
          <mxGeometry x="-2160" y="1170" width="80" height="80" as="geometry" />
        </mxCell>
        <mxCell id="Ibqq23cAUE4MZ3tAlWik-134" style="edgeStyle=orthogonalEdgeStyle;rounded=0;orthogonalLoop=1;jettySize=auto;html=1;exitX=0.5;exitY=1;exitDx=0;exitDy=0;entryX=0.5;entryY=1;entryDx=0;entryDy=0;" parent="1" source="Ibqq23cAUE4MZ3tAlWik-135" target="Ibqq23cAUE4MZ3tAlWik-137" edge="1">
          <mxGeometry relative="1" as="geometry">
            <mxPoint x="-2120" y="1400" as="targetPoint" />
          </mxGeometry>
        </mxCell>
        <mxCell id="Ibqq23cAUE4MZ3tAlWik-135" value="arr[i] = arr1[i]&lt;br&gt;arr1[i] = &quot;\0&quot;" style="rounded=0;whiteSpace=wrap;html=1;" parent="1" vertex="1">
          <mxGeometry x="-2180" y="1290" width="120" height="60" as="geometry" />
        </mxCell>
        <mxCell id="Ibqq23cAUE4MZ3tAlWik-136" style="edgeStyle=orthogonalEdgeStyle;rounded=0;orthogonalLoop=1;jettySize=auto;html=1;exitX=0.5;exitY=0;exitDx=0;exitDy=0;entryX=1;entryY=0.5;entryDx=0;entryDy=0;" parent="1" source="Ibqq23cAUE4MZ3tAlWik-137" target="Ibqq23cAUE4MZ3tAlWik-125" edge="1">
          <mxGeometry relative="1" as="geometry" />
        </mxCell>
        <mxCell id="Ibqq23cAUE4MZ3tAlWik-137" value="i++" style="rounded=0;whiteSpace=wrap;html=1;" parent="1" vertex="1">
          <mxGeometry x="-1810" y="1290" width="120" height="60" as="geometry" />
        </mxCell>
        <mxCell id="Ibqq23cAUE4MZ3tAlWik-138" style="edgeStyle=orthogonalEdgeStyle;rounded=0;orthogonalLoop=1;jettySize=auto;html=1;exitX=0.5;exitY=1;exitDx=0;exitDy=0;" parent="1" source="Ibqq23cAUE4MZ3tAlWik-139" edge="1">
          <mxGeometry relative="1" as="geometry">
            <mxPoint x="-2455" y="1480" as="targetPoint" />
          </mxGeometry>
        </mxCell>
        <mxCell id="Ibqq23cAUE4MZ3tAlWik-139" value="swap = currentIndex&lt;br&gt;currentIndex = currentIndex1&lt;br&gt;currentIndex1 = swap" style="rounded=0;whiteSpace=wrap;html=1;" parent="1" vertex="1">
          <mxGeometry x="-2560" y="1060" width="210" height="60" as="geometry" />
        </mxCell>
        <mxCell id="Ibqq23cAUE4MZ3tAlWik-140" style="edgeStyle=orthogonalEdgeStyle;rounded=0;orthogonalLoop=1;jettySize=auto;html=1;exitX=0.5;exitY=1;exitDx=0;exitDy=0;" parent="1" source="Ibqq23cAUE4MZ3tAlWik-141" edge="1">
          <mxGeometry relative="1" as="geometry">
            <mxPoint x="520" y="1170" as="targetPoint" />
            <Array as="points">
              <mxPoint x="-2579" y="1540" />
              <mxPoint x="-2579" y="1540" />
            </Array>
          </mxGeometry>
        </mxCell>
        <mxCell id="Ibqq23cAUE4MZ3tAlWik-141" value="in mang arr[]" style="shape=parallelogram;perimeter=parallelogramPerimeter;whiteSpace=wrap;html=1;fixedSize=1;" parent="1" vertex="1">
          <mxGeometry x="-2640" y="1450" width="120" height="60" as="geometry" />
        </mxCell>
        <mxCell id="Ibqq23cAUE4MZ3tAlWik-142" value="false" style="text;html=1;align=center;verticalAlign=middle;resizable=0;points=[];autosize=1;strokeColor=none;fillColor=none;" parent="1" vertex="1">
          <mxGeometry x="-2155" y="808" width="50" height="30" as="geometry" />
        </mxCell>
        <mxCell id="Ibqq23cAUE4MZ3tAlWik-143" value="fa;se" style="text;html=1;align=center;verticalAlign=middle;resizable=0;points=[];autosize=1;strokeColor=none;fillColor=none;" parent="1" vertex="1">
          <mxGeometry x="-1275" y="808" width="50" height="30" as="geometry" />
        </mxCell>
        <mxCell id="Ibqq23cAUE4MZ3tAlWik-144" value="false" style="text;html=1;align=center;verticalAlign=middle;resizable=0;points=[];autosize=1;strokeColor=none;fillColor=none;" parent="1" vertex="1">
          <mxGeometry x="-895" y="808" width="50" height="30" as="geometry" />
        </mxCell>
        <mxCell id="Ibqq23cAUE4MZ3tAlWik-145" style="edgeStyle=orthogonalEdgeStyle;rounded=0;orthogonalLoop=1;jettySize=auto;html=1;exitX=0.5;exitY=1;exitDx=0;exitDy=0;entryX=0.5;entryY=0;entryDx=0;entryDy=0;" parent="1" source="Ibqq23cAUE4MZ3tAlWik-147" target="Ibqq23cAUE4MZ3tAlWik-149" edge="1">
          <mxGeometry relative="1" as="geometry" />
        </mxCell>
        <mxCell id="Ibqq23cAUE4MZ3tAlWik-146" style="edgeStyle=orthogonalEdgeStyle;rounded=0;orthogonalLoop=1;jettySize=auto;html=1;exitX=0;exitY=0.5;exitDx=0;exitDy=0;" parent="1" source="Ibqq23cAUE4MZ3tAlWik-147" edge="1">
          <mxGeometry relative="1" as="geometry">
            <mxPoint x="-1220" y="238.25" as="targetPoint" />
          </mxGeometry>
        </mxCell>
        <mxCell id="Ibqq23cAUE4MZ3tAlWik-147" value="choice==5?" style="rhombus;whiteSpace=wrap;html=1;" parent="1" vertex="1">
          <mxGeometry x="-1020" y="198" width="80" height="80" as="geometry" />
        </mxCell>
        <mxCell id="Ibqq23cAUE4MZ3tAlWik-148" style="edgeStyle=orthogonalEdgeStyle;rounded=0;orthogonalLoop=1;jettySize=auto;html=1;exitX=0.5;exitY=1;exitDx=0;exitDy=0;entryX=0.5;entryY=0;entryDx=0;entryDy=0;" parent="1" source="Ibqq23cAUE4MZ3tAlWik-149" target="Ibqq23cAUE4MZ3tAlWik-151" edge="1">
          <mxGeometry relative="1" as="geometry" />
        </mxCell>
        <mxCell id="Ibqq23cAUE4MZ3tAlWik-149" value="reverseArr(arr,currentIndex)" style="rounded=0;whiteSpace=wrap;html=1;" parent="1" vertex="1">
          <mxGeometry x="-1070" y="328" width="180" height="60" as="geometry" />
        </mxCell>
        <mxCell id="Ibqq23cAUE4MZ3tAlWik-150" style="edgeStyle=orthogonalEdgeStyle;rounded=0;orthogonalLoop=1;jettySize=auto;html=1;exitX=0.5;exitY=1;exitDx=0;exitDy=0;" parent="1" source="Ibqq23cAUE4MZ3tAlWik-151" edge="1">
          <mxGeometry relative="1" as="geometry">
            <mxPoint x="-2720" y="630" as="targetPoint" />
            <Array as="points">
              <mxPoint x="-980" y="630" />
            </Array>
          </mxGeometry>
        </mxCell>
        <mxCell id="Ibqq23cAUE4MZ3tAlWik-151" value="mang arr[] dao nguoc" style="shape=parallelogram;perimeter=parallelogramPerimeter;whiteSpace=wrap;html=1;fixedSize=1;" parent="1" vertex="1">
          <mxGeometry x="-1040" y="430" width="120" height="60" as="geometry" />
        </mxCell>
        <mxCell id="Ibqq23cAUE4MZ3tAlWik-152" style="edgeStyle=orthogonalEdgeStyle;rounded=0;orthogonalLoop=1;jettySize=auto;html=1;exitX=0.5;exitY=1;exitDx=0;exitDy=0;" parent="1" source="Ibqq23cAUE4MZ3tAlWik-154" edge="1">
          <mxGeometry relative="1" as="geometry">
            <mxPoint x="-1260.5" y="300" as="targetPoint" />
          </mxGeometry>
        </mxCell>
        <mxCell id="Ibqq23cAUE4MZ3tAlWik-153" style="edgeStyle=orthogonalEdgeStyle;rounded=0;orthogonalLoop=1;jettySize=auto;html=1;exitX=0;exitY=0.5;exitDx=0;exitDy=0;" parent="1" source="Ibqq23cAUE4MZ3tAlWik-154" edge="1">
          <mxGeometry relative="1" as="geometry">
            <mxPoint x="-1430" y="238.25" as="targetPoint" />
          </mxGeometry>
        </mxCell>
        <mxCell id="Ibqq23cAUE4MZ3tAlWik-154" value="choice==6?" style="rhombus;whiteSpace=wrap;html=1;" parent="1" vertex="1">
          <mxGeometry x="-1300" y="198" width="80" height="80" as="geometry" />
        </mxCell>
        <mxCell id="Ibqq23cAUE4MZ3tAlWik-155" style="edgeStyle=orthogonalEdgeStyle;rounded=0;orthogonalLoop=1;jettySize=auto;html=1;exitX=0.5;exitY=1;exitDx=0;exitDy=0;entryX=0.5;entryY=0;entryDx=0;entryDy=0;" parent="1" source="Ibqq23cAUE4MZ3tAlWik-156" target="Ibqq23cAUE4MZ3tAlWik-158" edge="1">
          <mxGeometry relative="1" as="geometry" />
        </mxCell>
        <mxCell id="Ibqq23cAUE4MZ3tAlWik-156" value="findValue" style="shape=parallelogram;perimeter=parallelogramPerimeter;whiteSpace=wrap;html=1;fixedSize=1;" parent="1" vertex="1">
          <mxGeometry x="-1330" y="303" width="120" height="60" as="geometry" />
        </mxCell>
        <mxCell id="Ibqq23cAUE4MZ3tAlWik-157" style="edgeStyle=orthogonalEdgeStyle;rounded=0;orthogonalLoop=1;jettySize=auto;html=1;exitX=0.5;exitY=1;exitDx=0;exitDy=0;" parent="1" source="Ibqq23cAUE4MZ3tAlWik-158" edge="1">
          <mxGeometry relative="1" as="geometry">
            <mxPoint x="-1270.5" y="500" as="targetPoint" />
          </mxGeometry>
        </mxCell>
        <mxCell id="Ibqq23cAUE4MZ3tAlWik-158" value="searchValue(arr,currentIndex,findValue)" style="rounded=0;whiteSpace=wrap;html=1;" parent="1" vertex="1">
          <mxGeometry x="-1330" y="400" width="120" height="60" as="geometry" />
        </mxCell>
        <mxCell id="Ibqq23cAUE4MZ3tAlWik-159" style="edgeStyle=orthogonalEdgeStyle;rounded=0;orthogonalLoop=1;jettySize=auto;html=1;exitX=0;exitY=0.5;exitDx=0;exitDy=0;" parent="1" source="Ibqq23cAUE4MZ3tAlWik-160" edge="1">
          <mxGeometry relative="1" as="geometry">
            <mxPoint x="-2737.1110026041665" y="530.7777777777778" as="targetPoint" />
          </mxGeometry>
        </mxCell>
        <mxCell id="Ibqq23cAUE4MZ3tAlWik-160" value="vi tri phan tu trong mang ( i )" style="shape=parallelogram;perimeter=parallelogramPerimeter;whiteSpace=wrap;html=1;fixedSize=1;" parent="1" vertex="1">
          <mxGeometry x="-1330" y="500" width="120" height="60" as="geometry" />
        </mxCell>
        <mxCell id="Ibqq23cAUE4MZ3tAlWik-161" style="edgeStyle=orthogonalEdgeStyle;rounded=0;orthogonalLoop=1;jettySize=auto;html=1;exitX=0.5;exitY=0;exitDx=0;exitDy=0;" parent="1" source="Ibqq23cAUE4MZ3tAlWik-163" edge="1">
          <mxGeometry relative="1" as="geometry">
            <mxPoint x="-1470.5" y="100.00000000000011" as="targetPoint" />
          </mxGeometry>
        </mxCell>
        <mxCell id="Ibqq23cAUE4MZ3tAlWik-162" style="edgeStyle=orthogonalEdgeStyle;rounded=0;orthogonalLoop=1;jettySize=auto;html=1;exitX=0;exitY=0.5;exitDx=0;exitDy=0;" parent="1" source="Ibqq23cAUE4MZ3tAlWik-163" edge="1">
          <mxGeometry relative="1" as="geometry">
            <mxPoint x="-1620" y="239.5" as="targetPoint" />
          </mxGeometry>
        </mxCell>
        <mxCell id="Ibqq23cAUE4MZ3tAlWik-163" value="choice==7?" style="rhombus;whiteSpace=wrap;html=1;" parent="1" vertex="1">
          <mxGeometry x="-1510" y="200" width="80" height="80" as="geometry" />
        </mxCell>
        <mxCell id="Ibqq23cAUE4MZ3tAlWik-164" value="end" style="ellipse;whiteSpace=wrap;html=1;" parent="1" vertex="1">
          <mxGeometry x="-1530" y="20" width="120" height="80" as="geometry" />
        </mxCell>
        <mxCell id="Ibqq23cAUE4MZ3tAlWik-165" style="edgeStyle=orthogonalEdgeStyle;rounded=0;orthogonalLoop=1;jettySize=auto;html=1;exitX=0.5;exitY=1;exitDx=0;exitDy=0;entryX=0.5;entryY=0;entryDx=0;entryDy=0;" parent="1" source="Ibqq23cAUE4MZ3tAlWik-166" target="Ibqq23cAUE4MZ3tAlWik-168" edge="1">
          <mxGeometry relative="1" as="geometry" />
        </mxCell>
        <mxCell id="Ibqq23cAUE4MZ3tAlWik-166" value="default?" style="rhombus;whiteSpace=wrap;html=1;" parent="1" vertex="1">
          <mxGeometry x="-1700" y="200" width="80" height="80" as="geometry" />
        </mxCell>
        <mxCell id="Ibqq23cAUE4MZ3tAlWik-167" style="edgeStyle=orthogonalEdgeStyle;rounded=0;orthogonalLoop=1;jettySize=auto;html=1;exitX=0;exitY=0.5;exitDx=0;exitDy=0;" parent="1" source="Ibqq23cAUE4MZ3tAlWik-168" edge="1">
          <mxGeometry relative="1" as="geometry">
            <mxPoint x="-2730" y="830" as="targetPoint" />
          </mxGeometry>
        </mxCell>
        <mxCell id="Ibqq23cAUE4MZ3tAlWik-168" value="nhap lai" style="shape=parallelogram;perimeter=parallelogramPerimeter;whiteSpace=wrap;html=1;fixedSize=1;" parent="1" vertex="1">
          <mxGeometry x="-1720" y="318" width="120" height="60" as="geometry" />
        </mxCell>
      </root>
    </mxGraphModel>
  </diagram>
</mxfile>
